<svg xmlns="http://www.w3.org/2000/svg" viewBox="0 0 400 400">
  <!-- Credit Consullt Logo - White Version for Favicon -->
  <style>
    path, text { fill: #ffffff; stroke: #ffffff; }
  </style>
  
  <!-- Handshake with Document -->
  <path d="M250,90 L330,110 L330,230 L250,230 Z" fill="none" stroke-width="10"/>
  <path d="M170,110 L250,90 L250,230 L170,230 Z" fill="none" stroke-width="10"/>
  <text x="230" y="170" font-family="Arial" font-size="60" font-weight="bold">$</text>
  
  <!-- Left Hand -->
  <path d="M50,170 L120,150 L140,220 L80,240 Z" fill="none" stroke-width="10" transform="rotate(-10, 95, 195)"/>
  
  <!-- Right Hand -->
  <path d="M350,170 L280,150 L260,220 L320,240 Z" fill="none" stroke-width="10" transform="rotate(10, 305, 195)"/>
  
  <!-- Handshake -->
  <path d="M140,220 C180,190 220,230 260,220" fill="none" stroke-width="10"/>
  <path d="M150,240 C190,210 230,250 270,240" fill="none" stroke-width="10"/>
  <path d="M160,260 C200,230 240,270 280,260" fill="none" stroke-width="10"/>
  <path d="M170,280 C210,250 250,290 290,280" fill="none" stroke-width="10"/>
</svg> 