<?xml version="1.0" standalone="no"?>
<!DOCTYPE svg PUBLIC "-//W3C//DTD SVG 20010904//EN"
 "http://www.w3.org/TR/2001/REC-SVG-20010904/DTD/svg10.dtd">
<svg version="1.0" xmlns="http://www.w3.org/2000/svg"
 width="500.000000pt" height="500.000000pt" viewBox="0 0 500.000000 500.000000"
 preserveAspectRatio="xMidYMid meet">

<g transform="translate(0.000000,500.000000) scale(0.100000,-0.100000)"
fill="#000000" stroke="none">
<path d="M1873 4321 c-68 -5 -87 -10 -105 -29 l-23 -23 -3 -384 c-2 -228 -6
-385 -12 -385 -5 0 -44 11 -87 25 -90 29 -123 31 -163 10 -33 -17 -35 -22
-148 -365 -153 -465 -150 -451 -99 -505 27 -28 55 -41 175 -79 79 -25 154 -46
167 -46 14 0 35 -14 54 -36 l31 -35 -30 -45 c-38 -54 -69 -122 -70 -148 0 -40
39 -102 79 -124 21 -12 45 -22 54 -22 9 0 17 -14 21 -40 8 -53 57 -107 108
-120 31 -9 49 -8 90 6 l50 16 28 -31 c50 -54 117 -66 181 -33 l36 18 34 -28
c25 -21 44 -28 77 -28 47 0 96 21 110 47 9 15 16 14 79 -15 38 -18 84 -32 102
-32 61 0 123 49 136 109 5 24 13 30 43 36 65 12 108 41 131 88 12 24 21 53 21
64 0 17 8 21 50 25 80 8 125 52 144 141 6 24 11 27 50 27 73 0 156 75 156 141
0 28 1 28 48 23 38 -5 75 3 191 39 153 48 188 67 210 112 18 36 16 44 -105
422 -125 388 -129 400 -164 418 -40 21 -73 19 -163 -10 -43 -14 -82 -25 -87
-25 -6 0 -10 66 -10 165 l0 165 -247 250 -248 250 -405 -1 c-223 -2 -442 -5
-487 -8z m837 -296 l0 -225 26 -10 c14 -6 120 -10 235 -10 l209 0 0 -155 0
-155 -25 -10 c-30 -12 -68 -53 -77 -86 -3 -13 0 -46 7 -74 7 -27 10 -52 7 -54
-4 -2 -28 -7 -54 -11 -40 -6 -57 -2 -128 30 -45 21 -111 42 -145 48 -58 10
-72 8 -157 -17 l-94 -28 -112 38 c-109 37 -114 38 -178 27 -36 -6 -99 -28
-141 -47 -71 -34 -122 -44 -157 -30 -12 5 -14 18 -9 69 6 63 5 65 -28 97 -19
18 -42 38 -52 43 -16 9 -17 40 -20 385 -1 206 2 381 6 388 6 9 107 12 448 12
l439 0 0 -225z m252 -5 l163 -160 -167 0 -168 0 0 160 c0 88 2 160 5 160 3 0
78 -72 167 -160z m-1248 -599 c65 -22 122 -45 127 -52 9 -15 0 -44 -108 -379
-120 -373 -119 -370 -151 -370 -35 0 -272 78 -294 97 -12 11 -14 21 -8 41 113
355 215 663 227 686 13 25 18 28 51 22 21 -3 91 -23 156 -45z m1793 -11 c33
-85 213 -651 213 -671 0 -10 -12 -25 -27 -32 -60 -30 -220 -79 -262 -81 l-45
-1 -102 310 c-113 340 -135 418 -124 434 10 17 261 100 295 98 26 -2 33 -8 52
-57z m-1155 -166 c32 -9 58 -19 58 -23 0 -3 -37 -29 -83 -58 -96 -61 -243
-186 -262 -223 -12 -24 -11 -32 9 -76 29 -63 77 -110 125 -125 36 -11 55 -6
270 63 l231 75 77 -27 c196 -70 452 -220 477 -282 24 -57 -8 -108 -68 -108
-14 0 -105 39 -201 87 -166 83 -176 87 -192 70 -25 -25 -10 -44 68 -89 35 -20
89 -51 120 -68 81 -46 100 -95 54 -144 -37 -40 -71 -34 -213 39 -125 64 -127
65 -146 46 -27 -28 -16 -45 61 -87 93 -51 123 -80 123 -120 0 -36 -46 -84 -82
-84 -11 0 -73 28 -138 61 -126 65 -154 69 -148 23 2 -22 20 -37 88 -78 71 -43
86 -56 88 -79 4 -35 -22 -67 -55 -67 -13 0 -46 11 -73 25 l-50 25 6 43 c8 54
-14 100 -59 127 -34 21 -92 26 -117 11 -10 -7 -19 -2 -32 20 -38 63 -123 86
-193 53 l-34 -16 -31 36 c-19 21 -47 40 -70 46 -32 9 -40 16 -45 43 -18 80
-69 127 -137 127 -27 0 -47 8 -69 28 l-32 28 100 305 99 304 76 -3 c68 -3 81
-1 139 29 127 64 164 70 261 43z m523 -49 c80 -40 139 -49 216 -32 l35 8 77
-243 c43 -134 77 -246 77 -250 0 -4 -37 17 -82 46 -171 111 -422 226 -494 226
-14 0 -109 -27 -212 -59 -267 -85 -269 -85 -296 -68 -12 8 -30 31 -41 52 l-20
37 50 45 c128 115 289 212 445 267 74 27 155 17 245 -29z m-1055 -785 c11 -11
20 -27 20 -35 0 -23 -28 -74 -67 -122 -40 -49 -73 -56 -110 -21 -37 35 -31 61
34 151 30 40 40 47 69 47 21 0 42 -8 54 -20z m145 -165 c33 -32 31 -51 -6
-111 -62 -98 -99 -116 -146 -72 -32 30 -29 56 16 125 57 88 92 103 136 58z
m224 -40 c29 -15 41 -33 41 -65 0 -26 -76 -135 -102 -147 -31 -14 -72 2 -89
33 -12 23 -10 31 15 80 24 46 85 114 102 114 3 0 18 -7 33 -15z m219 -87 c18
-18 15 -44 -12 -86 -34 -54 -61 -75 -85 -67 -33 10 -44 40 -27 74 40 77 93
110 124 79z"/>
<path d="M2408 4089 c-10 -5 -18 -18 -18 -29 0 -11 -17 -28 -44 -44 -61 -36
-88 -83 -87 -151 0 -30 7 -68 16 -84 15 -30 65 -73 98 -84 15 -5 17 -20 17
-102 0 -57 -4 -95 -10 -95 -13 0 -50 60 -50 82 0 21 -37 48 -56 41 -43 -16
-21 -105 41 -162 24 -22 49 -41 54 -41 6 0 16 -12 23 -27 19 -41 56 -43 71 -4
6 17 19 34 29 37 28 9 77 53 93 85 8 15 15 52 15 82 0 44 -6 62 -29 94 -16 22
-45 47 -65 57 l-36 17 0 94 c0 52 4 95 9 95 13 0 39 -43 49 -81 7 -29 13 -34
38 -34 26 0 29 3 32 38 4 49 -29 108 -79 138 -22 13 -48 39 -59 57 -21 35 -26
37 -52 21z m-18 -224 c0 -47 -4 -85 -9 -85 -17 0 -51 52 -51 79 0 29 34 91 50
91 6 0 10 -34 10 -85z m117 -221 c26 -40 22 -90 -10 -122 l-27 -27 0 88 c0 92
8 105 37 61z"/>
<path d="M1684 3329 c-14 -15 -16 -24 -8 -37 15 -23 48 -27 63 -8 16 19 9 41
-17 55 -15 8 -23 6 -38 -10z"/>
<path d="M3261 3336 c-21 -25 -4 -58 27 -54 23 2 27 8 27 33 0 23 -5 31 -21
33 -11 2 -26 -4 -33 -12z"/>
<path d="M235 1811 c-68 -17 -115 -67 -115 -124 0 -87 66 -136 183 -137 79 0
125 16 156 56 l23 29 -56 3 c-39 2 -63 -2 -81 -14 -31 -20 -90 -12 -105 16
-16 29 -12 75 8 93 24 21 95 22 112 2 15 -18 120 -21 120 -4 0 6 -13 23 -28
39 -41 41 -140 59 -217 41z"/>
<path d="M2425 1806 c-57 -16 -90 -49 -99 -101 -9 -44 16 -99 57 -129 34 -25
156 -34 210 -17 35 12 87 55 87 72 0 15 -96 10 -126 -6 -16 -8 -37 -15 -47
-15 -21 0 -59 18 -69 34 -14 21 -8 73 10 89 24 21 95 22 112 2 13 -16 120 -22
120 -7 0 16 -32 53 -59 66 -42 22 -138 28 -196 12z"/>
<path d="M2835 1811 c-48 -12 -75 -30 -95 -64 -41 -66 -14 -147 58 -180 56
-24 185 -21 226 6 60 40 80 130 39 185 -35 48 -144 73 -228 53z m129 -83 c40
-57 -5 -125 -74 -114 -41 7 -60 28 -60 70 0 44 25 66 76 66 33 0 46 -5 58 -22z"/>
<path d="M3660 1809 c-45 -13 -80 -52 -80 -89 0 -39 34 -56 128 -65 76 -8 89
-18 47 -37 -19 -8 -31 -8 -50 0 -29 14 -125 16 -125 4 0 -14 41 -53 67 -63 36
-14 139 -11 177 5 64 27 86 92 41 122 -13 9 -57 20 -96 25 -78 10 -84 12 -74
28 8 14 72 14 80 1 3 -5 31 -10 60 -10 l55 0 -12 26 c-7 14 -24 32 -40 40 -36
19 -134 26 -178 13z"/>
<path d="M530 1680 l0 -130 55 0 55 0 0 40 0 41 58 -3 c55 -3 58 -4 75 -40 18
-36 21 -38 67 -38 l49 0 -9 31 c-5 18 -17 40 -26 50 -14 16 -14 18 5 28 28 16
38 74 17 106 -23 34 -73 45 -218 45 l-128 0 0 -130z m248 46 c5 -27 -15 -36
-80 -36 -58 0 -58 0 -58 30 l0 31 67 -3 c57 -3 68 -6 71 -22z"/>
<path d="M940 1680 l0 -130 155 0 155 0 0 30 0 29 -102 3 c-98 3 -103 4 -106
26 -3 21 -1 22 82 22 79 0 86 2 86 20 0 17 -8 19 -82 22 -77 3 -83 5 -86 26
-3 22 -1 22 97 22 l101 0 0 30 0 30 -150 0 -150 0 0 -130z"/>
<path d="M1310 1679 l0 -132 134 5 c190 8 235 34 236 135 0 52 -36 98 -88 113
-20 5 -92 10 -159 10 l-123 0 0 -131z m238 55 c22 -15 30 -66 14 -91 -12 -18
-59 -33 -108 -33 l-44 0 0 70 0 70 58 0 c36 0 66 -6 80 -16z"/>
<path d="M1730 1680 l0 -130 50 0 50 0 0 130 0 130 -50 0 -50 0 0 -130z"/>
<path d="M1880 1780 c0 -30 1 -30 55 -30 l55 0 0 -100 0 -100 50 0 50 0 0 100
0 100 50 0 c49 0 50 1 50 30 l0 30 -155 0 -155 0 0 -30z"/>
<path d="M3140 1680 l0 -130 50 0 50 0 0 90 c0 50 3 90 8 89 4 0 40 -40 80
-90 l74 -89 64 0 64 0 0 130 0 130 -55 0 -54 0 -3 -87 -3 -88 -74 88 -75 87
-63 0 -63 0 0 -130z"/>
<path d="M3930 1728 c0 -131 33 -170 149 -176 142 -8 181 28 181 171 l0 87
-50 0 -50 0 0 -80 c0 -88 -17 -120 -62 -120 -49 0 -68 38 -68 136 l0 64 -50 0
-50 0 0 -82z"/>
<path d="M4320 1680 l0 -130 150 0 150 0 0 30 0 30 -100 0 -100 0 0 100 0 100
-50 0 -50 0 0 -130z"/>
<path d="M4570 1780 c0 -30 1 -30 55 -30 l55 0 0 -100 0 -100 50 0 50 0 0 100
0 100 50 0 c49 0 50 1 50 30 l0 30 -155 0 -155 0 0 -30z"/>
<path d="M2680 1444 c0 -9 5 -14 12 -12 18 6 21 28 4 28 -9 0 -16 -7 -16 -16z"/>
<path d="M2870 1445 c7 -8 18 -15 25 -15 7 0 18 7 25 15 14 17 0 21 -17 4 -8
-8 -13 -8 -17 0 -4 6 -12 11 -18 11 -7 0 -6 -6 2 -15z"/>
<path d="M3926 1445 c-3 -9 0 -15 8 -15 8 0 16 7 20 15 3 9 0 15 -8 15 -8 0
-16 -7 -20 -15z"/>
<path d="M190 1396 c0 -11 15 -16 53 -18 l52 -3 -52 -40 c-29 -21 -53 -47 -53
-57 0 -16 10 -18 85 -18 69 0 85 3 85 15 0 11 -12 15 -50 15 -27 0 -50 3 -50
8 0 4 23 23 50 42 27 19 50 43 50 53 0 15 -11 17 -85 17 -68 0 -85 -3 -85 -14z"/>
<path d="M380 1406 c0 -2 17 -35 39 -73 29 -52 44 -69 64 -71 21 -3 30 7 66
68 22 40 41 74 41 76 0 2 -11 4 -25 4 -20 0 -30 -11 -53 -57 l-29 -56 -26 56
c-22 48 -30 57 -51 57 -15 0 -26 -2 -26 -4z"/>
<path d="M620 1335 l0 -75 85 0 c69 0 85 3 85 15 0 12 -13 15 -55 15 -42 0
-55 3 -55 15 0 11 12 15 45 15 33 0 45 4 45 15 0 11 -12 15 -45 15 -33 0 -45
4 -45 15 0 11 12 15 50 15 38 0 50 4 50 15 0 12 -16 15 -80 15 l-80 0 0 -75z"/>
<path d="M830 1336 c0 -74 1 -76 25 -76 20 0 25 5 25 25 0 21 5 25 28 25 32 0
46 -9 55 -32 4 -11 17 -18 32 -18 27 0 33 18 13 38 -9 9 -9 15 0 24 16 16 15
53 -3 68 -8 6 -50 14 -95 17 l-80 6 0 -77z m129 31 c15 -19 4 -27 -41 -27 -31
0 -38 3 -38 20 0 16 7 20 34 20 18 0 39 -6 45 -13z"/>
<path d="M1050 1395 c0 -9 9 -15 25 -15 24 0 25 -3 25 -60 l0 -60 30 0 30 0 0
60 0 60 30 0 c20 0 30 5 30 15 0 12 -16 15 -85 15 -69 0 -85 -3 -85 -15z"/>
<path d="M1250 1335 l0 -75 85 0 c68 0 85 3 85 15 0 10 -15 15 -57 17 -75 4
-86 28 -13 28 67 0 64 24 -4 28 -64 4 -55 26 12 30 37 2 52 7 52 18 0 11 -17
14 -80 14 l-80 0 0 -75z"/>
<path d="M1523 1395 c-48 -34 -19 -75 52 -75 25 0 35 -4 32 -12 -3 -9 -21 -12
-58 -10 l-54 3 24 -21 c43 -37 142 -19 149 28 4 25 -28 42 -79 42 -20 0 -29 4
-26 13 2 8 21 11 58 9 51 -4 53 -3 37 14 -24 24 -107 30 -135 9z"/>
<path d="M1719 1338 c34 -63 44 -73 67 -73 24 0 34 10 66 65 21 36 38 68 38
73 0 4 -11 7 -25 7 -21 0 -30 -10 -51 -57 l-26 -58 -27 57 c-23 50 -30 57 -54
58 l-29 0 41 -72z"/>
<path d="M1940 1399 c-31 -13 -40 -26 -40 -64 0 -38 9 -51 43 -64 91 -35 176
19 148 92 -15 40 -94 59 -151 36z m81 -29 c37 -20 15 -80 -30 -80 -14 0 -41
29 -41 45 0 16 27 45 41 45 6 0 19 -5 30 -10z"/>
<path d="M2250 1361 c0 -30 -5 -53 -15 -61 -17 -14 -55 -4 -55 16 0 9 -11 14
-30 14 -38 0 -39 -21 -2 -50 21 -18 36 -21 74 -17 67 6 78 18 78 88 0 56 -1
59 -25 59 -23 0 -25 -3 -25 -49z"/>
<path d="M2340 1335 l0 -75 85 0 c68 0 85 3 85 15 0 10 -15 15 -57 17 -75 4
-86 28 -13 28 67 0 64 24 -4 28 -64 4 -55 26 12 30 37 2 52 7 52 18 0 11 -17
14 -80 14 l-80 0 0 -75z"/>
<path d="M2590 1356 c0 -78 35 -106 118 -92 48 7 62 28 62 93 0 50 -1 53 -25
53 -23 0 -25 -4 -25 -44 0 -42 -18 -76 -40 -76 -22 0 -40 34 -40 76 0 40 -2
44 -25 44 -24 0 -25 -3 -25 -54z"/>
<path d="M2850 1403 c-51 -19 -68 -84 -30 -118 40 -36 155 -27 168 14 3 10 -4
12 -29 8 -19 -3 -43 -8 -55 -12 -23 -7 -54 16 -54 40 0 24 31 47 54 40 12 -4
36 -9 55 -12 25 -4 32 -2 29 8 -10 31 -91 49 -138 32z"/>
<path d="M3010 1395 c0 -10 10 -15 30 -15 l30 0 0 -60 0 -60 30 0 30 0 0 60 0
60 31 0 c20 0 29 4 27 13 -3 8 -33 13 -91 15 -73 2 -87 0 -87 -13z"/>
<path d="M3240 1398 c-53 -29 -49 -107 7 -129 37 -14 109 -6 133 16 26 24 26
76 0 100 -25 23 -107 30 -140 13z m92 -35 c23 -21 23 -36 -2 -58 -17 -15 -24
-16 -45 -7 -30 14 -34 56 -7 71 24 14 33 13 54 -6z"/>
<path d="M3430 1358 c17 -29 36 -63 42 -75 7 -15 20 -23 37 -23 22 0 33 12 68
75 l42 75 -28 0 c-25 0 -32 -7 -52 -55 -13 -30 -26 -55 -29 -55 -3 0 -16 25
-29 55 -21 49 -27 55 -52 55 l-29 0 30 -52z"/>
<path d="M3650 1335 c0 -73 1 -75 25 -75 23 0 25 3 25 53 l1 52 48 -52 c38
-43 54 -53 79 -53 l32 0 0 75 c0 73 -1 75 -25 75 -23 0 -25 -3 -25 -50 0 -27
-4 -50 -8 -50 -5 0 -26 22 -48 50 -32 41 -45 49 -71 50 l-33 0 0 -75z"/>
<path d="M3900 1335 l0 -75 30 0 30 0 0 75 0 75 -30 0 -30 0 0 -75z"/>
<path d="M4040 1403 c-51 -19 -68 -84 -30 -118 40 -36 155 -27 168 14 3 10 -4
12 -29 8 -19 -3 -43 -8 -55 -12 -23 -7 -54 16 -54 40 0 24 31 47 54 40 12 -4
36 -9 55 -12 25 -4 32 -2 29 8 -10 31 -91 49 -138 32z"/>
<path d="M4200 1395 c0 -10 10 -15 30 -15 l30 0 0 -60 0 -60 30 0 30 0 0 60 0
60 31 0 c20 0 29 4 27 13 -3 8 -33 13 -91 15 -73 2 -87 0 -87 -13z"/>
<path d="M4420 1358 c17 -29 36 -63 42 -75 7 -15 20 -23 37 -23 22 0 33 12 68
75 l42 75 -28 0 c-25 0 -32 -7 -52 -55 -13 -30 -26 -55 -29 -55 -3 0 -16 25
-29 55 -21 49 -27 55 -52 55 l-29 0 30 -52z"/>
<path d="M4660 1403 c-52 -21 -68 -84 -29 -119 16 -14 36 -19 81 -19 51 0 63
4 79 24 44 54 11 112 -67 117 -27 2 -56 1 -64 -3z m71 -33 c37 -20 15 -80 -30
-80 -14 0 -41 29 -41 45 0 16 27 45 41 45 6 0 19 -5 30 -10z"/>
<path d="M2815 1159 c-12 -19 5 -23 22 -6 16 16 16 17 1 17 -9 0 -20 -5 -23
-11z"/>
<path d="M1400 1108 c-53 -29 -49 -107 7 -129 37 -14 109 -6 133 16 26 24 26
76 0 100 -25 23 -107 30 -140 13z m92 -35 c23 -21 23 -36 -2 -58 -17 -15 -24
-16 -45 -7 -30 14 -34 56 -7 71 24 14 33 13 54 -6z"/>
<path d="M1600 1045 l0 -78 81 6 c93 6 119 22 119 72 0 49 -25 64 -119 72
l-81 6 0 -78z m114 39 c9 -4 21 -15 27 -25 13 -26 -21 -59 -61 -59 -29 0 -30
2 -30 45 0 41 2 45 24 45 13 0 32 -3 40 -6z"/>
<path d="M1840 1045 l0 -75 58 1 c97 1 137 11 140 37 2 13 -3 25 -12 28 -12 5
-13 10 -4 24 26 41 -15 60 -129 60 l-53 0 0 -75z m125 25 c0 -10 -12 -16 -37
-18 -33 -3 -38 0 -38 18 0 18 5 21 38 18 25 -2 37 -8 37 -18z m4 -39 c23 -15
2 -31 -40 -31 -32 0 -39 3 -39 20 0 16 7 20 33 20 17 0 38 -4 46 -9z"/>
<path d="M2120 1113 c-52 -21 -68 -84 -29 -119 16 -14 36 -19 81 -19 51 0 63
4 79 24 44 54 11 112 -67 117 -27 2 -56 1 -64 -3z m71 -33 c37 -20 15 -80 -30
-80 -14 0 -41 29 -41 45 0 16 27 45 41 45 6 0 19 -5 30 -10z"/>
<path d="M2300 1046 l0 -76 30 0 c25 0 30 4 30 25 0 21 5 25 30 25 20 0 35 -8
46 -25 10 -15 26 -25 40 -25 27 0 30 8 10 35 -11 16 -11 21 0 33 18 18 18 46
-1 62 -8 7 -53 15 -100 18 l-85 5 0 -77z m124 38 c33 -13 17 -34 -24 -34 -33
0 -40 3 -40 20 0 21 30 27 64 14z"/>
<path d="M2530 1045 l0 -75 30 0 c29 0 30 1 30 53 l0 52 46 -52 c39 -45 51
-53 80 -53 l35 0 -3 73 c-3 70 -4 72 -30 75 -27 3 -28 2 -28 -50 l-1 -53 -47
53 c-38 42 -53 52 -79 52 l-33 0 0 -75z"/>
<path d="M2790 1045 c0 -73 1 -75 25 -75 24 0 25 2 25 75 0 73 -1 75 -25 75
-24 0 -25 -2 -25 -75z"/>
<path d="M2880 1045 l0 -75 28 0 c19 0 30 7 37 22 14 32 37 33 73 3 23 -19 40
-25 63 -23 l32 3 -47 33 c-25 18 -46 36 -46 40 0 4 21 21 48 37 l47 30 -33 3
c-25 3 -45 -5 -82 -32 -28 -20 -52 -36 -55 -36 -3 0 -5 16 -5 35 0 32 -2 35
-30 35 l-30 0 0 -75z"/>
<path d="M3160 1108 c-53 -29 -49 -107 7 -129 37 -14 109 -6 133 16 26 24 26
76 0 100 -25 23 -107 30 -140 13z m92 -35 c23 -21 23 -36 -2 -58 -17 -15 -24
-16 -45 -7 -30 14 -34 56 -7 71 24 14 33 13 54 -6z"/>
<path d="M3350 1045 l0 -75 29 0 c28 0 30 2 33 48 l3 47 29 -48 c36 -60 61
-60 94 1 13 23 28 42 33 42 5 0 9 -20 9 -45 0 -41 2 -45 25 -45 24 0 25 2 25
75 l0 75 -34 0 c-29 0 -37 -6 -68 -57 l-35 -56 -38 56 c-34 51 -42 57 -71 57
l-34 0 0 -75z"/>
</g>
</svg>
